<?xml version="1.0" standalone="no"?><!DOCTYPE svg PUBLIC "-//W3C//DTD SVG 1.1//EN" "http://www.w3.org/Graphics/SVG/1.1/DTD/svg11.dtd"><svg t="1731423463257" class="icon" viewBox="0 0 1024 1024" version="1.1" xmlns="http://www.w3.org/2000/svg" p-id="1656" xmlns:xlink="http://www.w3.org/1999/xlink" width="256" height="256"><path d="M941.385313 75.101759c-92.551371-93.748893-249.084651-101.618326-351.900499-12.659522-70.653819 61.07364-131.727459 132.582833-192.630025 203.407727-107.777012 108.80346-211.277159 221.712711-314.093007 335.135185-94.604266 104.184445-93.235669 253.190441 1.026448 348.650081 92.89352 93.919968 254.730113 101.447251 354.124468 7.869433 103.671221-97.68361 198.446562-204.776323 292.537605-311.869037 71.509192-75.614983 144.900205-149.348146 213.843278-227.016024 91.524923-102.986923 88.44558-250.624322-2.908268-343.175693zM634.990664 665.651357c-30.109134 30.964507-60.047193 62.271163-89.985252 93.235669-43.110805 53.375282-90.156326 103.329072-139.767967 150.374593-42.93973 40.544686-94.946416 61.757939-156.020055 53.033133-75.786058-1.710746-128.990265-39.860387-160.125847-106.066266-34.04385-72.022416-24.634746-144.386981 26.174417-203.92095 73.733162-86.22161 153.96716-166.797757 230.779666-250.282173 12.146298-13.172746 20.35788-10.777701 31.81988-0.684298 85.195162 74.75961 170.903548 149.005996 256.269785 223.594531 15.225641 13.343821 14.541343 26.687641 0.684298 40.886835z m267.560709-287.91859c-61.929013 69.798446-126.93737 137.030773-190.23498 205.631696-10.777701 11.633074-19.673582 17.620686-34.557074 4.276866-85.024087-76.128207-170.732473-151.572116-256.269784-227.016025-14.541343-12.830597-19.502507-19.502507-0.855373-37.978566 61.244715-61.07364 118.383639-126.081997 176.891159-189.892831 28.398387-30.964507 62.100088-53.204208 102.302625-65.350506 89.300953-25.319044 177.233309 5.645463 224.792054 79.5497 44.992626 69.798446 37.807492 163.547339-21.897552 230.95074z" fill="#482912" p-id="1657"></path><path d="M378.03658 401.16999c-11.462-10.093403-19.673582-12.488447-31.819879 0.684299-76.812506 83.65549-157.217578 164.060563-230.779666 250.282172-50.809163 59.533969-60.218267 131.898534-26.174417 203.920951 31.135581 66.034804 84.339789 104.184445 160.125846 106.066266 60.902566 8.724806 113.080326-12.317373 156.020056-53.033133 49.611641-47.045521 96.657162-96.999311 139.767967-150.374594 29.938059-31.135581 59.876118-62.442237 89.985251-93.235669 13.857044-14.199194 14.541343-27.543014-0.684298-40.886835-85.366237-74.417461-171.074623-148.834922-256.269785-223.594532z" fill="#FFACB6" p-id="1658"></path><path d="M924.62 146.953101c-47.558745-73.904237-135.491101-104.868744-224.792054-79.5497-40.202536 12.146298-73.904237 34.385999-102.302625 65.350506-58.507521 63.810834-115.646445 128.819191-176.891159 189.892831-18.647134 18.476059-13.68597 25.14797 0.855373 37.978566 85.537311 75.443909 171.245697 150.887817 256.269784 227.016025 14.883492 13.343821 23.779373 7.356209 34.557074-4.276866 63.468685-68.600924 128.305967-135.662176 190.23498-205.631696 59.705043-67.403401 66.890177-160.98122 21.897552-230.950741z" fill="#FFFFFF" p-id="1659"></path></svg>